Coordinates
version=1
nRows=14
nColumns=40
inDegrees=yes

Units are S.I. units (second, meters, Newtons, ...)
Angles are in degrees.

endheader
time	pelvis_tilt	pelvis_list	pelvis_rotation	pelvis_tx	pelvis_ty	pelvis_tz	hip_flexion_r	hip_adduction_r	hip_rotation_r	knee_angle_r	knee_angle_r_beta	ankle_angle_r	subtalar_angle_r	mtp_angle_r	hip_flexion_l	hip_adduction_l	hip_rotation_l	knee_angle_l	knee_angle_l_beta	ankle_angle_l	subtalar_angle_l	mtp_angle_l	lumbar_extension	lumbar_bending	lumbar_rotation	arm_flex_r	arm_add_r	arm_rot_r	elbow_flex_r	pro_sup_r	wrist_flex_r	wrist_dev_r	arm_flex_l	arm_add_l	arm_rot_l	elbow_flex_l	pro_sup_l	wrist_flex_l	wrist_dev_l
     36.04000000	     -5.20299231	     -5.47937907	     -0.21053547	      0.86811411	      0.92847320	      0.50947834	     15.34650617	      4.04182416	    -15.43516368	     18.56698092	     18.56698092	      9.80726915	      1.45106167	     -1.78075955	     26.30013101	    -13.47383125	     -1.40355198	     57.65382473	     57.65382473	     13.03292431	    -18.73906202	     13.75180893	    -10.78680615	      7.74331098	      2.25312722	     10.67025384	    -15.76937962	     -3.29191564	     40.74978059	     44.46718334	      0.00000000	      0.00000000	      8.09006765	     -9.10464671	     -8.06653355	     52.02628664	     44.55240885	      0.00000000	      0.00000000
     36.05357143	     -5.37788037	     -5.38652348	      0.02705583	      0.86670426	      0.92873875	      0.50970386	     15.06166896	      3.96003913	    -15.53855445	     18.44033804	     18.44033804	     10.01101245	      1.38789982	     -1.86394847	     27.63759513	    -13.37572897	     -1.50687175	     55.50159486	     55.50159486	     13.30579853	    -18.64128009	     13.89510924	    -10.76475795	      7.69340861	      2.80419217	     12.45039405	    -16.34206685	     -3.45899742	     41.42652678	     44.46810749	      0.00000000	      0.00000000	      7.15835593	     -8.77004618	     -7.93081447	     51.38684524	     44.53584298	      0.00000000	      0.00000000
     36.06714286	     -5.42508866	     -5.24494574	      0.35744943	      0.86547041	      0.92928370	      0.50976609	     14.49586546	      3.84413775	    -15.71154999	     18.05957091	     18.05957091	     10.18479415	      1.42207333	     -1.98454311	     28.58720531	    -13.05544728	     -1.48141283	     52.90651628	     52.90651628	     13.34961495	    -18.69172466	     14.00047485	    -10.82529266	      7.62084466	      2.34506280	     14.81527328	    -16.25415877	     -3.50988259	     42.44489196	     44.46838314	      0.00000000	      0.00000000	      6.11549801	     -8.98043059	     -7.84135855	     49.39399049	     44.54102808	      0.00000000	      0.00000000
     36.08071429	     -5.50998959	     -5.12837863	      0.63421655	      0.86422635	      0.92961648	      0.50977834	     14.03038682	      3.74978246	    -15.81715313	     17.78044537	     17.78044537	     10.35745624	      1.38565996	     -2.11348473	     29.40386443	    -12.74777026	     -1.52636246	     50.06773054	     50.06773054	     13.32954866	    -18.62376505	     14.02911834	    -10.85058839	      7.56796620	      2.44667967	     16.87491023	    -16.53447810	     -3.49370680	     43.11074743	     44.47682598	      0.00000000	      0.00000000	      5.29188286	     -8.87626866	     -7.82638777	     47.78120080	     44.55666682	      0.00000000	      0.00000000
     36.09428571	     -5.66629937	     -5.01807251	      0.87045064	      0.86296420	      0.92967060	      0.50966771	     13.68369236	      3.65303485	    -15.86440498	     17.56777359	     17.56777359	     10.58415622	      1.29957920	     -2.20337975	     30.19158692	    -12.39522255	     -1.56162657	     47.10625823	     47.10625823	     13.30657394	    -18.44441793	     14.21490860	    -10.80920250	      7.51052044	      2.82211495	     18.71758133	    -17.05155280	     -3.57822469	     43.77377225	     44.47752782	      0.00000000	      0.00000000	      4.37939794	     -8.64397825	     -7.77815998	     46.81600511	     44.55178549	      0.00000000	      0.00000000
     36.10785714	     -5.67628021	     -4.90783504	      1.16356589	      0.86185116	      0.92991739	      0.50941986	     13.14101333	      3.54995024	    -15.98898195	     17.29886387	     17.29886387	     10.80074970	      1.28379474	     -2.32464134	     30.61560461	    -11.92591731	     -1.45964348	     43.82678449	     43.82678449	     13.10332732	    -18.28884518	     14.20987434	    -10.90465658	      7.46775859	      2.68103116	     20.70489427	    -17.09751896	     -3.49790994	     44.56841982	     44.47238915	      0.00000000	      0.00000000	      3.58365547	     -8.72372726	     -7.82006188	     45.11206367	     44.56454240	      0.00000000	      0.00000000
     36.12142857	     -5.82003120	     -4.88566464	      1.44624399	      0.86069456	      0.92970550	      0.50895734	     12.76699635	      3.49707777	    -16.23657476	     17.06816489	     17.06816489	     11.00537679	      1.42820392	     -2.68466135	     31.12442108	    -11.52792666	     -1.33523454	     40.46637320	     40.46637320	     12.32736075	    -17.94684768	     12.54768522	    -10.75029304	      7.56103128	      2.75879197	     22.73761056	    -17.50278710	     -2.82387008	     44.85866593	     44.50750151	      0.00000000	      0.00000000	      3.44709856	     -8.38693113	     -8.44335426	     41.76659511	     44.71330345	      0.00000000	      0.00000000
     36.13500000	     -5.88278678	     -4.79775916	      1.69101958	      0.85958643	      0.92952666	      0.50843689	     12.34152063	      3.40559157	    -16.23445674	     16.90357072	     16.90357072	     11.31060567	      1.29854665	     -2.77152296	     31.49271002	    -11.03204358	     -1.16497931	     37.17672958	     37.17672958	     12.20980113	    -17.17496508	     12.70274498	    -10.75780259	      7.50229490	      2.98283663	     24.36655614	    -17.83919127	     -2.90634702	     45.70155520	     44.50156836	      0.00000000	      0.00000000	      2.52565698	     -8.32774354	     -8.51032673	     41.08207181	     44.72345687	      0.00000000	      0.00000000
     36.14857143	     -5.96555075	     -4.73703763	      1.95571299	      0.85852323	      0.92917761	      0.50767825	     11.92068031	      3.32076977	    -16.31465360	     16.71891758	     16.71891758	     11.64404318	      1.25592152	     -2.87746139	     31.83757181	    -10.51863893	     -0.91112501	     33.92216223	     33.92216223	     12.02864624	    -16.12306535	     12.63820414	    -10.74091945	      7.52386206	      2.98064076	     26.01103454	    -18.00518360	     -2.92965848	     46.68416381	     44.48786462	      0.00000000	      0.00000000	      1.60944754	     -8.33496928	     -8.59798412	     40.12331979	     44.73585025	      0.00000000	      0.00000000
     36.16214286	     -5.99624616	     -4.76223274	      2.23758671	      0.85760238	      0.92864979	      0.50685722	     11.42163126	      3.31301187	    -16.54601661	     16.52507344	     16.52507344	     12.01695641	      1.41132092	     -3.05214116	     31.97215686	    -10.10794572	     -0.66654070	     30.47689906	     30.47689906	     10.51487755	    -15.16298012	      9.31279505	    -10.70938911	      7.62794578	      3.01629273	     27.36969350	    -18.43575802	     -2.14108820	     48.38550408	     44.50174494	      0.00000000	      0.00000000	      1.42318443	     -8.01822152	     -9.85324389	     37.45112338	     45.00917506	      0.00000000	      0.00000000
     36.17571429	     -6.06028608	     -4.72313457	      2.49690178	      0.85668093	      0.92804054	      0.50594310	     10.99058145	      3.24923887	    -16.58969385	     16.38841613	     16.38841613	     12.41921826	      1.31772968	     -3.16171242	     32.25921271	     -9.65773242	     -0.46130133	     27.56119239	     27.56119239	     10.36550736	    -13.41623208	      9.55392138	    -10.63468499	      7.61908370	      3.05390835	     28.82228771	    -18.54673711	     -2.25528045	     49.30720545	     44.49146662	      0.00000000	      0.00000000	      0.50438184	     -8.05992525	     -9.91606243	     36.85526047	     45.01598455	      0.00000000	      0.00000000
     36.18928571	     -6.04833494	     -4.71468994	      2.76232745	      0.85592339	      0.92739864	      0.50493179	     10.43931040	      3.22778293	    -16.66868864	     16.20719384	     16.20719384	     12.85490904	      1.29740029	     -3.26335513	     32.45749014	     -9.28303651	     -0.35337755	     24.92305430	     24.92305430	     10.15287771	    -11.41615059	      9.59408147	    -10.63688946	      7.63550324	      2.87386246	     30.27612624	    -18.43638739	     -2.29614446	     50.56173050	     44.46906518	      0.00000000	      0.00000000	     -0.40418972	     -8.15344318	    -10.03320919	     36.01233006	     45.03379873	      0.00000000	      0.00000000
     36.20285714	     -6.03686252	     -4.73528418	      3.02214484	      0.85531107	      0.92663038	      0.50381539	      9.88686508	      3.23400846	    -16.72677447	     16.04337161	     16.04337161	     13.31058617	      1.26660478	     -3.36772819	     32.68060597	     -8.96154999	     -0.30384864	     22.66741524	     22.66741524	      9.83809693	     -9.48117133	      9.61075119	    -10.57826102	      7.68523494	      2.76639304	     31.54976501	    -18.36544813	     -2.31252058	     51.86168733	     44.44301250	      0.00000000	      0.00000000	     -1.21168864	     -8.22004624	    -10.18533133	     35.19474459	     45.05757260	      0.00000000	      0.00000000
     36.21642857	     -5.99288312	     -4.83599266	      3.26636726	      0.85490030	      0.92575784	      0.50274714	      9.25748930	      3.35022500	    -16.81108578	     15.81857008	     15.81857008	     13.78879038	      1.24454497	     -3.41863166	     32.92964460	     -8.81636860	     -0.52846019	     20.89295996	     20.89295996	      9.27130934	     -7.46252173	      8.88907322	    -10.55501441	      7.78844946	      2.83091164	     32.20000983	    -18.54627108	     -2.16386434	     54.44633192	     44.40595821	      0.00000000	      0.00000000	     -1.65669032	     -8.13972381	    -10.90641564	     33.84534445	     45.20857725	      0.00000000	      0.00000000
